# xmcd
#
# Track frame offsets: 
#        151
#        21737
#        41422
#        63155
#        86765
#        107002
#        128398
#        144567
#        164928
#        190500
#        212511
#        231718
#        252240
#
# Disc length: 3655 seconds
#
# Revision: 0
# Processed by: cddbd v1.4PL0 Copyright (c) Steve Scherf et al.
# Submitted via: ExactAudioCopy v0.90b3
#
DISCID=b90e450d
DTITLE=Sunset Heights  - Sunset Heights 
DYEAR=1999
DGENRE=Blues
TTITLE0=Southern Star
TTITLE1=Did I Let You Down
TTITLE2=Meet Your Maker
TTITLE3=Freedom
TTITLE4=Medicine Hat
TTITLE5=Tangerine
TTITLE6=Memory Lane
TTITLE7=Lucy Come Home
TTITLE8=A Woman Like You
TTITLE9=Would It Be Too Much
TTITLE10=Drift Away
TTITLE11=Marking Time
TTITLE12=Body In Motion
EXTD=
EXTT0=
EXTT1=
EXTT2=
EXTT3=
EXTT4=
EXTT5=
EXTT6=
EXTT7=
EXTT8=
EXTT9=
EXTT10=
EXTT11=
EXTT12=
PLAYORDER=
